<svg width="22" height="23" viewBox="0 0 22 23" fill="none" xmlns="http://www.w3.org/2000/svg">
<path d="M17.3067 21.849C16.8671 21.849 16.5106 21.4925 16.5106 21.0529C16.5106 20.6133 16.8671 20.2568 17.3067 20.2568C17.7464 20.2568 18.1027 20.6133 18.1027 21.0529C18.1027 21.4925 17.7464 21.849 17.3067 21.849Z" stroke="#FBFBFB" stroke-width="1.2" stroke-linecap="round" stroke-linejoin="round"/>
<path d="M6.95781 21.849C6.51816 21.849 6.16174 21.4925 6.16174 21.0529C6.16174 20.6133 6.51816 20.2568 6.95781 20.2568C7.39748 20.2568 7.75389 20.6133 7.75389 21.0529C7.75389 21.4925 7.39748 21.849 6.95781 21.849Z" stroke="#FBFBFB" stroke-width="1.2" stroke-linecap="round" stroke-linejoin="round"/>
<path d="M15.1708 10.704H10.3943" stroke="#FBFBFB" stroke-width="1.2" stroke-linecap="round" stroke-linejoin="round"/>
<path d="M12.7826 8.3158V13.0922" stroke="#FBFBFB" stroke-width="1.2" stroke-linecap="round" stroke-linejoin="round"/>
<path d="M0.67514 1.15112H4.6555L5.07449 5.13148M5.07449 5.13148L6.0976 14.851C6.18289 15.6613 6.86619 16.2765 7.68098 16.2765H17.7416C18.4723 16.2765 19.1091 15.7793 19.2863 15.0705L21.2765 7.10978C21.5278 6.1049 20.7677 5.13148 19.7318 5.13148H5.07449Z" stroke="#FBFBFB" stroke-width="1.2" stroke-linecap="round" stroke-linejoin="round"/>
</svg>
