<svg width="25" height="25" viewBox="0 0 25 25" fill="none" xmlns="http://www.w3.org/2000/svg">
<path d="M2.71429 14.7143V22.4286C2.71429 22.6559 2.8046 22.8739 2.96535 23.0347C3.12608 23.1954 3.34411 23.2857 3.57144 23.2857H20.7143C20.9416 23.2857 21.1597 23.1954 21.3205 23.0347C21.4811 22.8739 21.5714 22.6559 21.5714 22.4286V14.7143" stroke="#ABDF75" stroke-width="2" stroke-linecap="round" stroke-linejoin="round"/>
<path d="M22.4286 10.4286H1.85714C1.62981 10.4286 1.4118 10.3383 1.25105 10.1776C1.09031 10.0168 1 9.7988 1 9.57146V6.14289L3.09143 1.94289C3.23519 1.65758 3.45583 1.41811 3.72844 1.25152C4.00106 1.08492 4.31481 0.997818 4.63429 1.00004H19.6514C19.971 0.997818 20.2847 1.08492 20.5573 1.25152C20.8298 1.41811 21.0505 1.65758 21.1943 1.94289L23.2857 6.14289V9.57146C23.2857 9.7988 23.1954 10.0168 23.0347 10.1776C22.8739 10.3383 22.6559 10.4286 22.4286 10.4286Z" stroke="#ABDF75" stroke-width="2" stroke-linecap="round" stroke-linejoin="round"/>
<path d="M13.8571 14.7143V23.2857" stroke="#ABDF75" stroke-width="2" stroke-linecap="round" stroke-linejoin="round"/>
<path d="M2.71429 17.2857H13.8572" stroke="#ABDF75" stroke-width="2" stroke-linecap="round" stroke-linejoin="round"/>
<path d="M1 6.14285H23.2857" stroke="#ABDF75" stroke-width="2" stroke-linecap="round" stroke-linejoin="round"/>
</svg>
